<svg width="18" height="18" viewBox="0 0 18 18" fill="none" xmlns="http://www.w3.org/2000/svg">
<mask id="mask0_59_41" style="mask-type:alpha" maskUnits="userSpaceOnUse" x="0" y="0" width="18" height="18">
<circle cx="9" cy="9" r="9" fill="#D9D9D9"/>
</mask>
<g mask="url(#mask0_59_41)">
<path d="M-3 0H21V18H-3" fill="#BD3D44"/>
<path d="M-3 2.07373H21ZM-3 4.83748H21ZM-3 7.61248H21ZM-3 10.3875H21ZM-3 13.1625H21ZM-3 15.9375H21Z" fill="black"/>
<path d="M-3 1.38V2.7675H21V1.38H-3ZM-3 4.14375V5.53125H21V4.14375H-3ZM-3 6.91875V8.30625H21V6.91875H-3ZM-3 9.69375V11.0813H21V9.69375H-3ZM-3 12.4688V13.8563H21V12.4688H-3ZM-3 15.2438V16.6313H21V15.2438H-3Z" fill="white"/>
<path d="M-3 0H10.68V9.69375H-3" fill="#192F5D"/>
<path d="M9.52497 8.17498L9.86247 9.18748L8.99997 8.54998H10.05L9.18747 9.18748L9.52497 8.17498ZM7.27498 8.17498L7.61247 9.18748L6.74998 8.54998H7.79997L6.93748 9.18748L7.27498 8.17498ZM4.98748 8.17498L5.32498 9.18748L4.46248 8.54998H5.51248L4.64998 9.18748L4.98748 8.17498ZM2.69998 8.17498L3.03748 9.18748L2.17498 8.54998H3.22498L2.36248 9.18748L2.69998 8.17498ZM0.412475 8.17498L0.749975 9.18748L-0.112525 8.54998H0.937475L0.0749754 9.18748L0.412475 8.17498ZM-1.87502 8.17498L-1.53752 9.18748L-2.40002 8.54998H-1.35002L-2.21252 9.18748L-1.87502 8.17498ZM8.39997 7.19998L8.73747 8.21248L7.87497 7.57498H8.92497L8.06247 8.21248L8.39997 7.19998ZM6.11248 7.19998L6.44998 8.21248L5.58748 7.57498H6.63748L5.77498 8.21248L6.11248 7.19998ZM3.86248 7.19998L4.19998 8.21248L3.33748 7.57498H4.38748L3.52498 8.21248L3.86248 7.19998ZM1.57498 7.19998L1.91248 8.21248L1.04998 7.57498H2.09998L1.23748 8.21248L1.57498 7.19998ZM-0.712525 7.19998L-0.375025 8.21248L-1.23752 7.57498H-0.187525L-1.05002 8.21248L-0.712525 7.19998ZM9.52497 6.22498L9.86247 7.23748L8.99997 6.59998H10.05L9.18747 7.23748L9.52497 6.22498ZM7.27498 6.22498L7.61247 7.23748L6.74998 6.59998H7.79997L6.93748 7.23748L7.27498 6.22498ZM4.98748 6.22498L5.32498 7.23748L4.46248 6.59998H5.51248L4.64998 7.23748L4.98748 6.22498ZM2.69998 6.22498L3.03748 7.23748L2.17498 6.59998H3.22498L2.36248 7.23748L2.69998 6.22498ZM0.412475 6.22498L0.749975 7.23748L-0.112525 6.59998H0.937475L0.0749754 7.23748L0.412475 6.22498ZM-1.87502 6.22498L-1.53752 7.23748L-2.40002 6.59998H-1.35002L-2.21252 7.23748L-1.87502 6.22498ZM8.39997 5.28748L8.73747 6.29998L7.87497 5.66248H8.92497L8.06247 6.29998L8.39997 5.28748ZM6.11248 5.28748L6.44998 6.29998L5.58748 5.66248H6.63748L5.77498 6.29998L6.11248 5.28748ZM3.86248 5.28748L4.19998 6.29998L3.33748 5.66248H4.38748L3.52498 6.29998L3.86248 5.28748ZM1.57498 5.28748L1.91248 6.29998L1.04998 5.66248H2.09998L1.23748 6.29998L1.57498 5.28748ZM-0.712525 5.28748L-0.375025 6.29998L-1.23752 5.66248H-0.187525L-1.05002 6.29998L-0.712525 5.28748ZM9.52497 4.31248L9.86247 5.32498L8.99997 4.68748H10.05L9.18747 5.32498L9.52497 4.31248ZM7.27498 4.31248L7.61247 5.32498L6.74998 4.68748H7.79997L6.93748 5.32498L7.27498 4.31248ZM4.98748 4.31248L5.32498 5.32498L4.46248 4.68748H5.51248L4.64998 5.32498L4.98748 4.31248ZM2.69998 4.31248L3.03748 5.32498L2.17498 4.68748H3.22498L2.36248 5.32498L2.69998 4.31248ZM0.412475 4.31248L0.749975 5.32498L-0.112525 4.68748H0.937475L0.0749754 5.32498L0.412475 4.31248ZM-1.87502 4.31248L-1.53752 5.32498L-2.40002 4.68748H-1.35002L-2.21252 5.32498L-1.87502 4.31248ZM8.39997 3.33748L8.73747 4.34998L7.87497 3.71248H8.92497L8.06247 4.34998L8.39997 3.33748ZM6.11248 3.33748L6.44998 4.34998L5.58748 3.71248H6.63748L5.77498 4.34998L6.11248 3.33748ZM3.86248 3.33748L4.19998 4.34998L3.33748 3.71248H4.38748L3.52498 4.34998L3.86248 3.33748ZM1.57498 3.33748L1.91248 4.34998L1.04998 3.71248H2.09998L1.23748 4.34998L1.57498 3.33748ZM-0.712525 3.33748L-0.375025 4.34998L-1.23752 3.71248H-0.187525L-1.05002 4.34998L-0.712525 3.33748ZM9.52497 2.36248L9.86247 3.37498L8.99997 2.73748H10.05L9.18747 3.37498L9.52497 2.36248ZM7.27498 2.36248L7.61247 3.37498L6.74998 2.73748H7.79997L6.93748 3.37498L7.27498 2.36248ZM4.98748 2.36248L5.32498 3.37498L4.46248 2.73748H5.51248L4.64998 3.37498L4.98748 2.36248ZM2.69998 2.36248L3.03748 3.37498L2.17498 2.73748H3.22498L2.36248 3.37498L2.69998 2.36248ZM0.412475 2.36248L0.749975 3.37498L-0.112525 2.73748H0.937475L0.0749754 3.37498L0.412475 2.36248ZM-1.87502 2.36248L-1.53752 3.37498L-2.40002 2.73748H-1.35002L-2.21252 3.37498L-1.87502 2.36248ZM8.39997 1.38748L8.73747 2.39998L7.87497 1.76248H8.92497L8.06247 2.39998L8.39997 1.38748ZM6.11248 1.38748L6.44998 2.39998L5.58748 1.76248H6.63748L5.77498 2.39998L6.11248 1.38748ZM3.86248 1.38748L4.19998 2.39998L3.33748 1.76248H4.38748L3.52498 2.39998L3.86248 1.38748ZM1.57498 1.38748L1.91248 2.39998L1.04998 1.76248H2.09998L1.23748 2.39998L1.57498 1.38748ZM-0.712525 1.38748L-0.375025 2.39998L-1.23752 1.76248H-0.187525L-1.05002 2.39998L-0.712525 1.38748ZM9.52497 0.412476L9.86247 1.42498L8.99997 0.787476H10.05L9.18747 1.42498L9.52497 0.412476ZM7.27498 0.412476L7.61247 1.42498L6.74998 0.787476H7.79997L6.93748 1.42498L7.27498 0.412476ZM4.98748 0.412476L5.32498 1.42498L4.46248 0.787476H5.51248L4.64998 1.42498L4.98748 0.412476ZM2.69998 0.412476L3.03748 1.42498L2.17498 0.787476H3.22498L2.36248 1.42498L2.69998 0.412476ZM0.412475 0.412476L0.749975 1.42498L-0.112525 0.787476H0.937475L0.0749754 1.42498L0.412475 0.412476ZM-1.87502 0.412476L-1.53752 1.42498L-2.40002 0.787476H-1.35002L-2.21252 1.42498L-1.87502 0.412476Z" fill="white"/>
</g>
<circle cx="9" cy="9" r="8.5" stroke="#F8FAFC"/>
</svg>
