<svg width="239" height="200" viewBox="0 0 239 200" fill="none" xmlns="http://www.w3.org/2000/svg">
<path d="M79.3309 169.061C76.7768 169.583 73.294 169.903 69.9563 169.903C68.7954 169.903 67.7215 169.874 66.7637 169.787C62.3522 169.438 53.3549 168.684 49.9302 160.876C49.1175 159.019 48.8854 156.987 49.2627 155.014L49.5529 153.534C49.9302 151.56 50.888 149.732 52.3391 148.309C52.7745 147.874 53.2389 147.439 53.7032 147.003C53.8483 146.887 53.9935 146.742 54.1386 146.597V118.27C54.1386 115.629 53.0937 113.075 51.2072 111.188L40.0042 99.9855L51.2072 88.7824C53.0937 86.8959 54.1386 84.3709 54.1386 81.7007V44.9862C54.1386 42.229 56.3734 39.9942 59.1306 39.9942H114.13V10.013C114.13 4.49861 109.66 -1.52588e-05 104.117 -1.52588e-05H24.1284C18.614 -1.52588e-05 14.1444 4.46958 14.1444 10.013V81.7298C14.1444 84.3709 13.0995 86.925 11.213 88.8115L0.0100098 100.014L11.213 111.218C13.0995 113.104 14.1444 115.629 14.1444 118.299V190.016C14.1444 195.53 18.614 200 24.1284 200H104.117C109.631 200 114.13 195.53 114.13 190.016V160.035H100.257C99.6182 160.499 98.9507 160.935 98.2541 161.37C92.5365 165.056 86.0062 167.726 79.3599 169.119L79.3309 169.061Z" fill="#00B7E3"/>
<path d="M227.002 88.7824C225.115 86.8959 224.07 84.3709 224.07 81.7007V10.013C224.07 4.49861 219.601 -1.52588e-05 214.057 -1.52588e-05H134.069C128.555 -1.52588e-05 124.056 4.46958 124.056 10.013V39.9942H152.47C154.269 38.4269 156.069 36.8597 157.839 35.2924C159.552 33.7832 162.28 31.6645 166.111 30.4455C167.098 30.1262 168.084 29.9811 169.129 29.9811C169.158 29.9811 172.873 30.0392 172.873 30.0392C173.889 30.0392 174.876 30.2133 175.834 30.5326C183.38 32.9995 186.572 38.0786 187.907 41.9097C190.142 48.2949 188.836 54.9412 184.308 60.1654C184.221 60.2525 184.134 60.3686 184.047 60.4556V81.7007C184.047 84.3419 185.092 86.8959 186.979 88.7824L198.182 99.9855L186.979 111.188C185.092 113.075 184.047 115.6 184.047 118.27V154.985C184.047 157.742 181.812 159.977 179.055 159.977H124.056V189.958C124.056 195.472 128.526 199.942 134.069 199.942H214.057C219.572 199.942 224.07 195.472 224.07 189.958V118.241C224.07 115.6 225.115 113.046 227.002 111.159L238.205 99.9564L227.002 88.7534V88.7824Z" fill="#FF6F3C"/>
<path d="M178.533 45.2185C177.546 42.4612 175.456 40.894 172.786 40.0233L169.187 39.9652C167.388 40.5167 165.908 41.5615 164.515 42.7805C154.995 51.1392 145.417 59.4399 135.897 67.7986C127.684 75.0254 119.354 82.1942 111.373 89.6822C108.035 92.8168 105.278 96.4157 102.608 100.102C101.737 101.292 101.853 102.946 102.927 104.02L114.914 116.006C115.958 117.051 117.642 117.167 118.832 116.297C120.892 114.787 122.924 113.22 124.869 111.595C129.861 107.416 133.953 102.394 138.277 97.5766C145.94 88.9857 153.486 80.3077 161.061 71.6587C166.343 65.6509 171.567 59.614 176.82 53.5772C178.968 51.1102 179.636 48.324 178.562 45.1894L178.533 45.2185Z" fill="#F8FAFC"/>
<path d="M91.4047 107.503C81.5077 108.751 71.2915 117.138 67.6635 126.368C65.6029 131.621 65.719 137.222 65.3417 142.737C65.1675 145.349 64.9063 148.077 63.7164 150.457C62.6715 152.518 60.9591 153.795 59.3629 155.391L59.0726 156.871C60.1175 159.251 65.0514 159.629 67.5765 159.832C70.2757 160.064 74.6582 159.832 77.2993 159.28C82.7847 158.148 88.096 155.972 92.8268 152.924C100.518 147.961 108.209 139.777 110.792 130.808C110.966 130.17 111.17 129.415 111.373 128.574C111.605 127.587 111.286 126.542 110.56 125.816L92.1593 107.415C91.9271 107.415 91.6949 107.474 91.4337 107.503H91.4047Z" fill="#F8FAFC"/>
</svg>
