<svg width="268" height="48" viewBox="0 0 268 48" fill="none" xmlns="http://www.w3.org/2000/svg">
<path d="M67.896 22.7355C68.6323 21.3752 69.6558 20.3219 70.9633 19.5724C72.2707 18.823 73.7664 18.4499 75.4536 18.4499C77.6261 18.4499 79.4222 18.9946 80.8452 20.0776C82.2683 21.1639 83.2224 22.6859 83.7078 24.6471H78.9302C78.676 23.8877 78.2501 23.2934 77.6492 22.8609C77.0483 22.4284 76.3054 22.2138 75.4205 22.2138C74.156 22.2138 73.1523 22.6727 72.416 23.5906C71.6764 24.5085 71.3099 25.8093 71.3099 27.4965C71.3099 29.1837 71.6797 30.4548 72.416 31.3727C73.1523 32.2906 74.156 32.7495 75.4205 32.7495C77.2134 32.7495 78.3822 31.9472 78.9302 30.3459H83.7078C83.2224 32.2443 82.265 33.7499 80.8287 34.8692C79.3958 35.9851 77.603 36.5464 75.4503 36.5464C73.7631 36.5464 72.2674 36.1733 70.96 35.4239C69.6525 34.6744 68.629 33.6211 67.8927 32.2608C67.1531 30.9005 66.7866 29.3157 66.7866 27.4998C66.7866 25.6839 67.1564 24.0991 67.8927 22.7388L67.896 22.7355Z" fill="#121212"/>
<path d="M92.837 19.272C93.7548 18.7437 94.8015 18.4829 95.9835 18.4829V23.1317H94.8147C93.4247 23.1317 92.3747 23.4585 91.6682 24.1123C90.9616 24.766 90.6083 25.9051 90.6083 27.5295V36.2592H86.1808V18.7371H90.6083V21.4577C91.1762 20.5299 91.9224 19.8036 92.837 19.2753V19.272Z" fill="#121212"/>
<path d="M98.4664 15.9042C97.948 15.409 97.6905 14.7916 97.6905 14.0553C97.6905 13.319 97.948 12.7016 98.4664 12.2064C98.9814 11.7111 99.6319 11.4635 100.411 11.4635C101.19 11.4635 101.841 11.7111 102.356 12.2064C102.871 12.7016 103.132 13.319 103.132 14.0553C103.132 14.7916 102.874 15.4123 102.356 15.9042C101.837 16.3995 101.19 16.6471 100.411 16.6471C99.6319 16.6471 98.9814 16.3995 98.4664 15.9042ZM102.593 18.7338V36.2559H98.1659V18.7338H102.593Z" fill="#121212"/>
<path d="M109.012 35.7672C107.873 35.2488 106.972 34.5489 106.308 33.664C105.644 32.7792 105.281 31.7986 105.215 30.7222H109.676C109.758 31.3958 110.092 31.9571 110.673 32.3995C111.254 32.8419 111.974 33.0631 112.839 33.0631C113.704 33.0631 114.341 32.8947 114.816 32.558C115.292 32.2212 115.53 31.7887 115.53 31.2604C115.53 30.6925 115.239 30.2633 114.661 29.9793C114.08 29.6954 113.159 29.385 111.894 29.045C110.587 28.728 109.517 28.4011 108.685 28.0644C107.853 27.7276 107.137 27.2092 106.536 26.5159C105.935 25.8225 105.634 24.8815 105.634 23.6995C105.634 22.7288 105.912 21.844 106.473 21.0417C107.031 20.2394 107.833 19.6087 108.877 19.1432C109.92 18.681 111.148 18.4465 112.561 18.4465C114.648 18.4465 116.315 18.9682 117.56 20.0115C118.805 21.0549 119.488 22.4614 119.617 24.2344H115.378C115.315 23.5377 115.024 22.9864 114.509 22.5736C113.991 22.1609 113.301 21.9562 112.439 21.9562C111.637 21.9562 111.019 22.1048 110.59 22.3987C110.158 22.6958 109.943 23.1052 109.943 23.6335C109.943 24.2245 110.237 24.6735 110.828 24.9773C111.419 25.2843 112.337 25.5947 113.582 25.9117C114.846 26.2286 115.889 26.5555 116.712 26.8923C117.534 27.229 118.247 27.7507 118.848 28.4573C119.449 29.1638 119.759 30.0982 119.782 31.2571C119.782 32.2674 119.501 33.1754 118.943 33.9777C118.385 34.78 117.583 35.4073 116.54 35.8597C115.496 36.312 114.278 36.5398 112.888 36.5398C111.498 36.5398 110.168 36.2823 109.028 35.7639L109.012 35.7672Z" fill="#121212"/>
<path d="M127.769 22.3723V30.8477C127.769 31.4387 127.911 31.8646 128.195 32.1288C128.479 32.3929 128.957 32.525 129.634 32.525H131.691V36.2559H128.908C125.177 36.2559 123.308 34.4433 123.308 30.8147V22.369H121.222V18.7305H123.308V14.3987H127.769V18.7305H131.691V22.369H127.769V22.3723Z" fill="#121212"/>
<path d="M134.395 15.9042C133.877 15.409 133.619 14.7916 133.619 14.0553C133.619 13.319 133.877 12.7016 134.395 12.2064C134.91 11.7111 135.561 11.4635 136.34 11.4635C137.119 11.4635 137.77 11.7111 138.285 12.2064C138.8 12.7016 139.061 13.319 139.061 14.0553C139.061 14.7916 138.803 15.4123 138.285 15.9042C137.766 16.3995 137.119 16.6471 136.34 16.6471C135.561 16.6471 134.91 16.3995 134.395 15.9042ZM138.522 18.7338V36.2559H134.095V18.7338H138.522Z" fill="#121212"/>
<path d="M142.016 22.7189C142.722 21.3487 143.68 20.2955 144.895 19.5559C146.107 18.8196 147.464 18.4499 148.959 18.4499C150.267 18.4499 151.409 18.714 152.39 19.239C153.37 19.7672 154.156 20.4309 154.747 21.2332V18.7338H159.208V36.2559H154.747V33.6938C154.179 34.5159 153.393 35.196 152.39 35.7342C151.389 36.2724 150.234 36.5398 148.926 36.5398C147.45 36.5398 146.107 36.1601 144.895 35.4007C143.683 34.6414 142.722 33.5716 142.016 32.1915C141.309 30.8114 140.956 29.2233 140.956 27.4305C140.956 25.6376 141.309 24.0891 142.016 22.7189ZM154.113 24.7264C153.69 23.9571 153.123 23.3661 152.406 22.9567C151.69 22.5473 150.92 22.3393 150.098 22.3393C149.276 22.3393 148.517 22.5407 147.82 22.9402C147.123 23.3397 146.559 23.9274 146.13 24.6967C145.697 25.466 145.482 26.3772 145.482 27.4338C145.482 28.4903 145.697 29.4115 146.13 30.2006C146.562 30.9897 147.13 31.5972 147.837 32.0198C148.543 32.4424 149.296 32.6537 150.098 32.6537C150.901 32.6537 151.69 32.449 152.406 32.0363C153.123 31.6236 153.69 31.0359 154.113 30.2666C154.536 29.4973 154.747 28.5761 154.747 27.4998C154.747 26.4234 154.536 25.5023 154.113 24.733V24.7264Z" fill="#121212"/>
<path d="M177.519 20.4573C178.803 21.7747 179.447 23.6137 179.447 25.9777V36.2559H175.019V26.5786C175.019 25.1886 174.673 24.1189 173.976 23.3694C173.279 22.6199 172.332 22.2468 171.13 22.2468C169.928 22.2468 168.941 22.6232 168.234 23.3694C167.528 24.1189 167.175 25.1886 167.175 26.5786V36.2559H162.747V18.7338H167.175V20.9162C167.766 20.1568 168.518 19.5625 169.436 19.13C170.354 18.6975 171.361 18.4829 172.457 18.4829C174.544 18.4829 176.231 19.1432 177.519 20.4606V20.4573Z" fill="#121212"/>
<path d="M182.785 22.7189C183.492 21.3487 184.456 20.2955 185.681 19.5559C186.902 18.8196 188.262 18.4499 189.761 18.4499C190.901 18.4499 191.987 18.6975 193.02 19.1927C194.054 19.688 194.876 20.3483 195.487 21.1704V12.8535H199.977V36.2592H195.487V33.6674C194.939 34.5324 194.169 35.2291 193.179 35.754C192.188 36.2823 191.039 36.5431 189.732 36.5431C188.256 36.5431 186.905 36.1634 185.684 35.404C184.462 34.6447 183.495 33.5749 182.788 32.1948C182.082 30.8147 181.728 29.2266 181.728 27.4338C181.728 25.6409 182.082 24.0924 182.788 22.7222L182.785 22.7189ZM194.882 24.7264C194.46 23.9571 193.892 23.3661 193.175 22.9567C192.459 22.5473 191.69 22.3392 190.868 22.3392C190.045 22.3392 189.286 22.5407 188.589 22.9402C187.893 23.3397 187.328 23.9274 186.896 24.6967C186.463 25.4659 186.248 26.3772 186.248 27.4338C186.248 28.4903 186.463 29.4115 186.896 30.2006C187.328 30.9897 187.896 31.5972 188.603 32.0198C189.309 32.4424 190.062 32.6537 190.864 32.6537C191.667 32.6537 192.456 32.449 193.172 32.0363C193.889 31.6236 194.456 31.0359 194.879 30.2666C195.302 29.4973 195.513 28.5761 195.513 27.4998C195.513 26.4234 195.302 25.5023 194.879 24.733L194.882 24.7264Z" fill="#121212"/>
<path d="M203.437 22.7189C204.144 21.3487 205.101 20.2955 206.316 19.5559C207.528 18.8196 208.885 18.4499 210.38 18.4499C211.688 18.4499 212.83 18.714 213.811 19.239C214.792 19.7672 215.577 20.4309 216.168 21.2332V18.7338H220.629V36.2559H216.168V33.6938C215.597 34.5159 214.811 35.196 213.811 35.7342C212.811 36.2724 211.655 36.5398 210.347 36.5398C208.872 36.5398 207.528 36.1601 206.316 35.4007C205.104 34.6414 204.144 33.5716 203.437 32.1915C202.73 30.8114 202.377 29.2233 202.377 27.4305C202.377 25.6376 202.73 24.0891 203.437 22.7189ZM215.534 24.7264C215.112 23.9571 214.544 23.3661 213.827 22.9567C213.111 22.5473 212.342 22.3393 211.52 22.3393C210.697 22.3393 209.938 22.5407 209.241 22.9402C208.545 23.3397 207.98 23.9274 207.548 24.6967C207.115 25.466 206.901 26.3772 206.901 27.4338C206.901 28.4903 207.115 29.4115 207.548 30.2006C207.98 30.9897 208.548 31.5972 209.255 32.0198C209.961 32.4424 210.714 32.6537 211.516 32.6537C212.319 32.6537 213.108 32.449 213.824 32.0363C214.541 31.6236 215.109 31.0359 215.531 30.2666C215.954 29.4973 216.165 28.5761 216.165 27.4998C216.165 26.4234 215.954 25.5023 215.531 24.733L215.534 24.7264Z" fill="#121212"/>
<path d="M231.475 32.1783L235.903 18.7371H240.614L234.13 36.2592H228.754L222.303 18.7371H227.047L231.475 32.1783Z" fill="#121212"/>
<path d="M242.625 15.9042C242.106 15.409 241.849 14.7916 241.849 14.0553C241.849 13.319 242.106 12.7016 242.625 12.2064C243.14 11.7111 243.79 11.4635 244.57 11.4635C245.349 11.4635 245.999 11.7111 246.514 12.2064C247.033 12.7016 247.29 13.319 247.29 14.0553C247.29 14.7916 247.033 15.4123 246.514 15.9042C245.996 16.3995 245.349 16.6471 244.57 16.6471C243.79 16.6471 243.14 16.3995 242.625 15.9042ZM246.752 18.7338V36.2559H242.324V18.7338H246.752Z" fill="#121212"/>
<path d="M250.248 22.7189C250.955 21.3487 251.919 20.2955 253.144 19.5559C254.366 18.8196 255.726 18.4499 257.225 18.4499C258.364 18.4499 259.45 18.6975 260.484 19.1927C261.517 19.688 262.339 20.3483 262.95 21.1704V12.8535H267.44V36.2592H262.95V33.6674C262.402 34.5324 261.633 35.2291 260.642 35.754C259.652 36.2823 258.503 36.5431 257.195 36.5431C255.719 36.5431 254.369 36.1634 253.147 35.404C251.926 34.6447 250.958 33.5749 250.252 32.1948C249.545 30.8147 249.192 29.2266 249.192 27.4338C249.192 25.6409 249.545 24.0924 250.252 22.7222L250.248 22.7189ZM262.346 24.7264C261.923 23.9571 261.355 23.3661 260.639 22.9567C259.922 22.5473 259.153 22.3392 258.331 22.3392C257.509 22.3392 256.749 22.5407 256.053 22.9402C255.356 23.3397 254.792 23.9274 254.359 24.6967C253.927 25.4659 253.712 26.3772 253.712 27.4338C253.712 28.4903 253.927 29.4115 254.359 30.2006C254.792 30.9897 255.359 31.5972 256.066 32.0198C256.773 32.4424 257.525 32.6537 258.328 32.6537C259.13 32.6537 259.919 32.449 260.636 32.0363C261.352 31.6236 261.92 31.0359 262.343 30.2666C262.765 29.4973 262.976 28.5761 262.976 27.4998C262.976 26.4234 262.765 25.5023 262.343 24.733L262.346 24.7264Z" fill="#121212"/>
<path d="M19.0508 40.5844C18.44 40.7099 17.598 40.7858 16.799 40.7858C16.5217 40.7858 16.2641 40.7759 16.0363 40.7561C14.9765 40.6702 12.8139 40.4953 11.9917 38.6166C11.7969 38.1742 11.7408 37.6822 11.83 37.2068L11.8993 36.8502C11.9884 36.3714 12.2229 35.9356 12.5662 35.5922C12.6752 35.4866 12.7842 35.3842 12.8931 35.2819C12.9261 35.2522 12.9591 35.2191 12.9955 35.1861V28.3846C12.9955 27.7474 12.7412 27.1366 12.2922 26.6876L9.60132 23.9967L12.2922 21.3058C12.7412 20.8568 12.9955 20.246 12.9955 19.6087V10.7965C12.9955 10.1329 13.5336 9.59802 14.194 9.59802H27.3941V2.40033C27.3941 1.07635 26.3211 0 24.9938 0H5.79447C4.47049 0 3.39414 1.07305 3.39414 2.40033V19.6121C3.39414 20.2493 3.13991 20.8601 2.69088 21.3091L0 24L2.69088 26.6909C3.13991 27.1399 3.39414 27.7507 3.39414 28.3879V45.5997C3.39414 46.9236 4.46719 48 5.79447 48H24.9938C26.3178 48 27.3941 46.9269 27.3941 45.5997V38.3987H24.066C23.9109 38.5076 23.7491 38.6166 23.5873 38.7222C22.2171 39.6071 20.6488 40.2509 19.0475 40.5844H19.0508Z" fill="#00B7E3"/>
<path d="M54.4977 21.3091C54.0487 20.8601 53.7945 20.2493 53.7945 19.6121V2.40033C53.7945 1.07635 52.7214 0 51.3941 0H32.1948C30.8708 0 29.7945 1.07305 29.7945 2.40033V9.60132H36.6158C37.045 9.22493 37.4775 8.84853 37.9067 8.47214C38.3161 8.11226 38.9699 7.60049 39.891 7.30995C40.1255 7.23731 40.3665 7.19769 40.6141 7.19769C40.624 7.19769 41.5122 7.20759 41.5122 7.20759C41.7532 7.20759 41.9942 7.25052 42.2253 7.32645C44.0347 7.91746 44.8007 9.13908 45.1275 10.057C45.6657 11.5889 45.352 13.1837 44.2625 14.4383C44.2427 14.4614 44.2196 14.4878 44.1997 14.5109V19.6087C44.1997 20.246 44.454 20.8568 44.903 21.3058L47.5939 23.9967L44.903 26.6876C44.454 27.1366 44.1997 27.7474 44.1997 28.3846V37.1969C44.1997 37.8605 43.6616 38.3954 43.0012 38.3954H29.8011V45.5964C29.8011 46.9203 30.8741 47.9967 32.2014 47.9967H51.4007C52.7247 47.9967 53.8011 46.9236 53.8011 45.5964V28.3846C53.8011 27.7474 54.0553 27.1366 54.5043 26.6876L57.1952 23.9967L54.5043 21.3058L54.4977 21.3091Z" fill="#FF6F3C"/>
<path d="M42.8626 10.856C42.6281 10.1923 42.1263 9.81924 41.4792 9.60793C41.182 9.60463 40.9113 9.60132 40.6141 9.59802C40.1849 9.73339 39.8283 9.98102 39.4915 10.2749C37.2035 12.279 34.9088 14.2732 32.624 16.2806C30.6496 18.0173 28.6554 19.7342 26.7404 21.5336C25.9414 22.2864 25.2778 23.1515 24.6339 24.033C24.4259 24.3203 24.4556 24.7198 24.7066 24.9707L27.5856 27.8498C27.8399 28.104 28.2394 28.1304 28.5299 27.9191C29.0252 27.5559 29.5105 27.1828 29.9794 26.7899C31.1746 25.7862 32.1618 24.5811 33.1952 23.4222C35.0309 21.362 36.8469 19.2819 38.6661 17.2051C39.9307 15.7623 41.1886 14.3161 42.4499 12.8667C42.9616 12.2757 43.13 11.6055 42.8659 10.856H42.8626Z" fill="#121212"/>
<path d="M21.9463 25.8027C19.5724 26.1065 17.116 28.1139 16.2476 30.3327C15.7557 31.5906 15.7788 32.9344 15.6929 34.2617C15.6533 34.8923 15.5906 35.5427 15.3033 36.1172C15.0557 36.6125 14.6397 36.9195 14.2567 37.2992L14.1907 37.6558C14.4416 38.227 15.6269 38.3162 16.2311 38.3657C16.8783 38.4185 17.9282 38.3657 18.5621 38.2336C19.8795 37.9596 21.1572 37.4379 22.2864 36.7049C24.1354 35.513 25.981 33.5485 26.5984 31.3958C26.6414 31.2439 26.6909 31.059 26.7371 30.8642C26.7899 30.6265 26.714 30.3756 26.5423 30.2039L22.1213 25.7829C22.0652 25.7895 22.0091 25.7928 21.9497 25.8027H21.9463Z" fill="#121212"/>
</svg>
