<svg width="77" height="77" viewBox="0 0 77 77" fill="none" xmlns="http://www.w3.org/2000/svg">
<path d="M0.300659 18.4824C0.300659 8.38244 8.4907 0.192444 18.5907 0.192444H58.1606C68.2706 0.192444 76.4607 8.38244 76.4607 18.4824V58.1724C76.4607 68.2324 68.3107 76.3824 58.2507 76.3824H18.5907C8.4907 76.3824 0.300659 68.1924 0.300659 58.0924V18.4824Z" fill="#74AA9C"/>
<path d="M35.3506 9.63243C29.0806 9.63243 23.5007 13.6624 21.5607 19.6224C17.5307 20.4524 14.0507 22.9724 12.0107 26.5524C8.86068 31.9824 9.58066 38.8124 13.8007 43.4624C12.5007 47.3624 12.9407 51.6224 15.0207 55.1624C18.1507 60.6124 24.4407 63.4024 30.5907 62.1024C33.3207 65.1724 37.2406 66.9224 41.3506 66.9124C47.6206 66.9124 53.2007 62.8824 55.1407 56.9224C59.1807 56.0924 62.6507 53.5624 64.6807 50.0024C67.8407 44.5724 67.1306 37.7424 62.9106 33.0924V33.0724C64.2106 29.1724 63.7707 24.9024 61.6907 21.3524C58.5607 15.9224 52.2707 13.1324 46.1307 14.4224C43.3907 11.3524 39.4606 9.61243 35.3506 9.63243ZM35.3506 13.3524L35.3307 13.3724C37.8507 13.3724 40.2806 14.2424 42.2206 15.8524C42.1406 15.8924 41.9907 15.9924 41.8707 16.0424L30.4507 22.6224C29.8707 22.9524 29.5207 23.5724 29.5207 24.2524V39.6924L24.6107 36.8624V24.1024C24.6107 18.1724 29.4106 13.3624 35.3506 13.3524ZM49.1107 17.8524C52.9607 17.8524 56.5207 19.8924 58.4507 23.2324C59.6907 25.4024 60.1607 27.9424 59.7307 30.4124C59.6507 30.3524 59.5007 30.2724 59.4007 30.2224L47.9807 23.6224C47.4007 23.2924 46.6807 23.2924 46.1007 23.6224L32.7206 31.3424V25.6824L43.7707 19.3024C45.4007 18.3624 47.2407 17.8624 49.1207 17.8624L49.1107 17.8524ZM20.8707 23.7124V37.2724C20.8707 37.9524 21.2207 38.5524 21.8007 38.9024L35.1606 46.6024L30.2307 49.4524L19.2007 43.0924C14.0707 40.1224 12.3106 33.5624 15.2806 28.4324C16.5406 26.2624 18.5107 24.5924 20.8707 23.7224V23.7124ZM46.4607 27.0724L57.5107 33.4324C62.6607 36.4024 64.4007 42.9524 61.4307 48.0924L61.4507 48.1124C60.1907 50.2824 58.2107 51.9524 55.8607 52.8024V39.2424C55.8607 38.5624 55.5107 37.9424 54.9307 37.6124L41.5507 29.8924L46.4607 27.0624V27.0724ZM38.3407 31.7424L43.9706 35.0024V41.5024L38.3407 44.7624L32.7107 41.5024V35.0024L38.3407 31.7424ZM47.1907 36.8624L52.1007 39.6924V52.4324C52.1007 58.3624 47.2807 63.1824 41.3607 63.1824V63.1624C38.8507 63.1624 36.4107 62.2924 34.4907 60.6824C34.5707 60.6424 34.7407 60.5424 34.8407 60.4924L46.2607 53.9224C46.8407 53.5924 47.2107 52.9724 47.1907 52.2924V36.8724V36.8624ZM43.9807 45.2024V50.8624L32.9307 57.2224C27.7807 60.1724 21.2207 58.4224 18.2507 53.3024H18.2707C17.0107 51.1524 16.5607 48.5924 16.9907 46.1224C17.0707 46.1824 17.2207 46.2624 17.3207 46.3124L28.7407 52.9124C29.3207 53.2424 30.0407 53.2424 30.6207 52.9124L43.9907 45.1924L43.9807 45.2024Z" fill="white"/>
</svg>
