<svg width="77" height="77" viewBox="0 0 77 77" fill="none" xmlns="http://www.w3.org/2000/svg">
<path d="M0.750732 27.7624C0.750732 18.1124 0.750737 13.2824 2.63074 9.60244C4.28074 6.36244 6.92074 3.72244 10.1607 2.07244C13.8507 0.192441 18.6707 0.192444 28.3207 0.192444H49.3607C59.0107 0.192444 63.8408 0.192441 67.5208 2.07244C70.7607 3.72244 73.4007 6.36244 75.0508 9.60244C76.9307 13.2924 76.9307 18.1124 76.9307 27.7624V48.8024C76.9307 58.4524 76.9307 63.2824 75.0508 66.9624C73.4007 70.2024 70.7607 72.8424 67.5208 74.4924C63.8308 76.3724 59.0107 76.3724 49.3607 76.3724H28.3207C18.6707 76.3724 13.8407 76.3724 10.1607 74.4924C6.92074 72.8424 4.28074 70.2024 2.63074 66.9624C0.750737 63.2724 0.750732 58.4524 0.750732 48.8024V27.7624Z" fill="#330000"/>
<path d="M37.6708 48.0725H25.8608L23.4608 55.7225C23.3908 56.0024 23.1308 56.2125 22.8508 56.1925H16.8708C16.5308 56.1925 16.4108 56.0024 16.5108 55.6124L26.7308 25.4224C26.8308 25.1124 26.9308 24.7525 27.0408 24.3525C27.1708 23.6525 27.2408 22.9424 27.2408 22.2324C27.2108 22.0224 27.4008 21.8324 27.6008 21.8624H35.7308C35.9708 21.8624 36.1008 21.9524 36.1408 22.1224L47.7408 55.6724C47.8408 56.0224 47.7408 56.1925 47.4308 56.1925H40.7908C40.5608 56.2225 40.3308 56.0625 40.2808 55.8225L37.6708 48.0624V48.0725ZM27.7008 41.4625H35.7808C34.4508 36.9325 32.9608 32.4525 31.7408 27.8825C30.4308 32.4625 29.0008 37.0225 27.7008 41.4625Z" fill="#FF9A00"/>
<path d="M54.6407 27.4125C54.1207 27.4325 53.6007 27.3425 53.1107 27.1425C52.6307 26.9425 52.1907 26.6425 51.8207 26.2625C51.4607 25.8625 51.1807 25.3925 50.9907 24.8825C50.8107 24.3725 50.7207 23.8225 50.7407 23.2825C50.7207 22.7425 50.8107 22.2025 51.0107 21.7025C51.2107 21.2025 51.5107 20.7525 51.8907 20.3725C52.2707 20.0025 52.7107 19.7125 53.2007 19.5225C53.6907 19.3325 54.2107 19.2325 54.7307 19.2525C55.9607 19.2525 56.9207 19.6325 57.6207 20.3825C57.9707 20.7725 58.2507 21.2325 58.4307 21.7325C58.6107 22.2325 58.6907 22.7625 58.6707 23.2925C58.6907 23.8425 58.6107 24.3925 58.4207 24.9025C58.2307 25.4125 57.9407 25.8825 57.5707 26.2825C57.1807 26.6725 56.7207 26.9725 56.2207 27.1725C55.7107 27.3725 55.1707 27.4625 54.6307 27.4325L54.6407 27.4125ZM51.1107 55.6725V30.6125C51.1107 30.3025 51.2507 30.1425 51.5207 30.1425H57.8107C58.0807 30.1425 58.2207 30.3025 58.2207 30.6125V55.6725C58.2207 56.0225 58.0807 56.1925 57.8107 56.1925H51.5707C51.2607 56.1925 51.1107 56.0225 51.1107 55.6725Z" fill="#FF9A00"/>
</svg>
