<svg width="77" height="77" viewBox="0 0 77 77" xmlns="http://www.w3.org/2000/svg">
<path d="M56.91 71.4397C56.63 71.5897 56.65 71.6397 56.92 71.4997C57.01 71.4597 57.08 71.4097 57.15 71.3497C57.15 71.3163 57.07 71.3463 56.91 71.4397ZM57.48 71.1297C57.3866 71.203 57.3966 71.2163 57.51 71.1697C57.6 71.1197 57.67 71.0697 57.67 71.0597C57.67 70.9997 57.63 71.0097 57.48 71.1297ZM57.85 70.9097C57.7567 70.983 57.7667 70.9963 57.88 70.9497C57.97 70.8997 58.04 70.8497 58.04 70.8397C58.04 70.7797 58 70.7897 57.85 70.9197V70.9097ZM58.23 70.6897C58.1366 70.763 58.1433 70.7763 58.25 70.7297C58.34 70.6797 58.41 70.6297 58.41 70.6197C58.41 70.5597 58.37 70.5697 58.23 70.6997V70.6897ZM58.74 70.3497C58.48 70.5197 58.39 70.6397 58.63 70.5097C58.79 70.4097 59.06 70.1997 59.01 70.1997C58.91 70.2397 58.82 70.2997 58.74 70.3497ZM35.97 0.0196634C35.8 0.0296634 35.27 0.0796634 34.82 0.119663C23.99 1.09966 13.86 6.92966 7.43999 15.9097C3.88999 20.8297 1.58999 26.5497 0.719986 32.5497C0.409986 34.6497 0.369995 35.2597 0.369995 38.0997C0.369995 40.9397 0.409986 41.5497 0.719986 43.6397C2.78999 57.9497 12.97 69.9697 26.77 74.4197C29.25 75.2097 31.86 75.7597 34.82 76.0997C35.97 76.2197 40.96 76.2197 42.11 76.0997C47.23 75.5297 51.56 74.2597 55.84 72.0797C56.5 71.7497 56.62 71.6597 56.53 71.5797C54.43 68.8197 52.38 66.0497 50.32 63.2597L44.23 55.0397L36.6 43.7397C34.06 39.9597 31.5 36.1897 28.91 32.4397C28.88 32.4397 28.85 37.4597 28.84 43.5897C28.81 54.3197 28.81 54.7497 28.68 54.9997C28.54 55.2997 28.32 55.5497 28.02 55.6797C27.78 55.7897 27.57 55.8197 26.45 55.8197H25.16L24.82 55.6097C24.61 55.4697 24.44 55.2897 24.32 55.0597L24.16 54.7197V39.7897L24.2 24.8597L24.44 24.5597C24.59 24.3797 24.78 24.2297 24.99 24.1097C25.3 23.9597 25.43 23.9397 26.71 23.9397C28.22 23.9397 28.47 23.9997 28.87 24.4397C31.96 29.0397 35.03 33.6497 38.06 38.2797C43.01 45.7797 49.77 56.0297 53.09 61.0497L59.13 70.1897L59.43 69.9897C62.33 68.0497 64.97 65.7497 67.25 63.1197C72.05 57.6197 75.16 50.8597 76.22 43.6497C76.53 41.5497 76.57 40.9297 76.57 38.0997C76.57 35.2697 76.53 34.6497 76.22 32.5597C74.15 18.2497 63.97 6.22966 50.17 1.77966C47.59 0.959663 44.93 0.409663 42.25 0.119663C41.53 0.0496634 36.6 -0.0403366 35.99 0.0196634H35.97ZM51.56 23.0597C51.92 23.2297 52.19 23.5597 52.31 23.9297C52.37 24.1297 52.39 28.2697 52.37 37.5997L52.34 50.9897L49.99 47.3697L47.62 43.7497V34.0297C47.62 27.7297 47.65 24.1897 47.68 24.0197C47.79 23.6197 48.06 23.2897 48.43 23.0797C48.73 22.9297 48.84 22.9197 50.02 22.9197C51.12 22.9197 51.31 22.9297 51.56 23.0697V23.0597Z" fill="#F8FAFC"/>
</svg>
