<svg width="71" height="77" viewBox="0 0 71 77" fill="none" xmlns="http://www.w3.org/2000/svg">
<path d="M38.5605 1.0062C36.6305 -0.0838019 34.1105 -0.0738019 32.1805 1.0062C22.5005 6.3462 12.8205 11.6962 3.13052 17.0362C1.25052 18.0262 -0.0294837 20.0462 0.000516338 22.1462V54.4262C-0.00948366 56.5662 1.32052 58.6062 3.26052 59.5862C6.04052 61.0662 8.74051 62.6962 11.5805 64.0762C14.8505 65.6862 18.9405 66.0362 22.2505 64.3662C24.9405 62.9762 26.1305 59.8862 26.1305 57.0462C26.1505 46.3962 26.1305 35.7362 26.1305 25.0862C26.1905 24.6162 25.8405 24.1062 25.3205 24.1162C24.0805 24.0962 22.8405 24.1062 21.6105 24.1162C21.1405 24.0762 20.6905 24.4562 20.7205 24.9262C20.7005 35.5162 20.7205 46.0962 20.7105 56.6862C20.7405 58.1462 19.7505 59.5562 18.3405 60.0562C15.0805 61.1962 5.78052 55.1562 5.78052 55.1562C5.44052 54.9962 5.22052 54.6262 5.26052 54.2562C5.26052 43.6062 5.26052 32.9562 5.26052 22.3062C5.21052 21.8762 5.48052 21.4862 5.87052 21.3162C15.5205 16.0062 25.1605 10.6762 34.8105 5.3662C35.1505 5.1462 35.6105 5.1462 35.9505 5.3662C45.6005 10.6762 55.2505 15.9962 64.9005 21.3062C65.3005 21.4862 65.5505 21.8762 65.5105 22.3062C65.5105 32.9562 65.5105 43.6062 65.5105 54.2562C65.5405 54.6362 65.3405 54.9962 64.9905 55.1662C55.4305 60.4462 45.7605 65.5662 36.2905 70.9962C35.8805 71.2362 35.4105 71.5062 34.9505 71.2362C32.4605 69.8562 30.0005 68.4262 27.5105 67.0362C27.2405 66.8662 26.9005 66.7962 26.6105 66.9862C25.5005 67.5762 24.4505 68.0462 23.1705 68.5562C21.3705 69.2662 21.6605 69.5562 23.2805 70.4962C26.1805 72.1362 29.0905 73.7762 32.0005 75.4162C33.9105 76.6062 36.4805 76.6962 38.4505 75.5962C48.1305 70.2562 57.8105 64.9162 67.5005 59.5762C69.4305 58.5962 70.7705 56.5562 70.7605 54.4162V22.1362C70.7805 20.0762 69.5605 18.0962 67.7305 17.0862C58.0105 11.7162 48.2905 6.3562 38.5805 0.996204L38.5605 1.0062Z" fill="#8CC84B"/>
<path d="M53.1805 25.2462C49.3805 23.2162 44.8605 23.1062 40.6305 23.3662C37.5805 23.6662 34.3705 24.5062 32.1505 26.6962C29.8705 28.8962 29.3705 32.4462 30.4605 35.3162C31.2405 37.3462 33.1905 38.6662 35.2105 39.3562C37.8105 40.2762 40.5505 40.5562 43.2805 40.8462C45.7705 41.1062 48.2705 41.3662 50.6605 42.1062C51.6405 42.4262 52.7805 42.9262 53.0805 43.9962C53.3605 45.2562 53.0505 46.7262 52.0305 47.5962C48.7805 50.1662 39.7305 49.7762 36.5105 47.7462C35.2105 46.8862 34.6505 45.3562 34.4205 43.8962C34.3905 43.4462 34.0305 43.0262 33.5405 43.0562C32.3105 43.0462 31.0705 43.0462 29.8405 43.0562C29.4105 43.0162 28.9605 43.3262 28.9405 43.7662C28.6905 50.4362 34.8105 53.3462 40.5605 53.9862C43.8405 54.2962 47.2005 54.2762 50.4305 53.5762C52.8605 53.0262 55.3005 52.0062 56.9705 50.1262C59.0305 47.8462 59.4405 44.4662 58.5105 41.6262C57.8005 39.5062 55.7805 38.1562 53.7105 37.4562C50.9005 36.4962 47.5705 35.9762 45.0205 35.7362C41.3205 35.3862 36.9205 35.5262 35.8705 33.0962C35.4505 31.8262 35.8105 30.2462 36.9805 29.4562C40.0805 27.3562 46.3805 27.6362 49.5805 29.2062C51.0505 29.9462 51.9105 31.4562 52.2605 32.9862C52.3305 33.4362 52.6305 33.9062 53.1505 33.8862C54.3805 33.9062 55.6005 33.8862 56.8305 33.8862C57.2505 33.9162 57.7105 33.6762 57.7905 33.2462C57.7405 30.0562 56.1105 26.7862 53.1605 25.2262L53.1805 25.2462Z" fill="#8CC84B"/>
</svg>
