<svg width="78" height="77" viewBox="0 0 78 77" fill="none" xmlns="http://www.w3.org/2000/svg">
<path d="M0.930664 27.7624C0.930664 18.1124 0.930669 13.2824 2.81067 9.60244C4.46067 6.36244 7.10067 3.72244 10.3407 2.07244C14.0307 0.192441 18.8507 0.192444 28.5007 0.192444H49.5406C59.1907 0.192444 64.0207 0.192441 67.7007 2.07244C70.9407 3.72244 73.5807 6.36244 75.2307 9.60244C77.1106 13.2924 77.1107 18.1124 77.1107 27.7624V48.8024C77.1107 58.4524 77.1106 63.2824 75.2307 66.9624C73.5807 70.2024 70.9407 72.8424 67.7007 74.4924C64.0107 76.3724 59.1907 76.3724 49.5406 76.3724H28.5007C18.8507 76.3724 14.0207 76.3724 10.3407 74.4924C7.10067 72.8424 4.46067 70.2024 2.81067 66.9624C0.930669 63.2724 0.930664 58.4524 0.930664 48.8024V27.7624Z" fill="#001E36"/>
<path d="M17.2606 56.0125V22.5125C17.2606 22.2825 17.3606 22.1525 17.5806 22.1525C20.8606 22.1525 24.1406 21.9525 27.4206 21.9525C32.7406 21.9525 38.5106 23.7725 40.5306 29.3425C41.0106 30.7125 41.2607 32.1125 41.2607 33.5725C41.2607 36.3725 40.6306 38.6825 39.3606 40.5125C35.8106 45.6025 29.6606 45.5225 24.1506 45.5225V55.9725C24.1906 56.2825 23.9306 56.4325 23.6706 56.4325H17.6406C17.3906 56.4325 17.2606 56.3025 17.2606 56.0125ZM24.1806 28.4325V39.3725C26.3706 39.5325 28.6506 39.5525 30.7506 38.8525C33.0706 38.1825 34.3406 36.1725 34.3406 33.7725C34.4006 31.7225 33.2906 29.7625 31.3906 29.0225C29.3206 28.1625 26.4206 28.1125 24.1806 28.4325Z" fill="#31A8FF"/>
<path d="M61.0606 37.2124C60.1006 36.7024 59.0806 36.3324 58.0206 36.1124C56.6606 35.7924 51.3006 34.6724 51.3006 37.4724C51.3506 39.0324 53.8306 39.8024 54.9306 40.2524C58.7806 41.5724 63.1406 43.9424 63.0606 48.6924C63.1806 54.6124 57.4506 56.9724 52.5306 56.9724C49.9706 57.0024 47.3106 56.6024 44.9706 55.5024C44.7506 55.3824 44.6006 55.1324 44.6106 54.8724V49.2124C44.5806 48.9824 44.8306 48.7824 45.0206 48.9524C47.3106 50.3424 50.0306 51.0124 52.6906 51.0524C53.8606 51.0524 56.1806 50.9424 56.1706 49.2224C56.1706 47.5724 53.3906 46.8124 52.2906 46.3924C50.6906 45.8224 49.1606 45.0224 47.7706 44.0324C45.8206 42.6424 44.5906 40.4124 44.6306 37.9524C44.6206 32.3824 49.9006 29.8824 54.6506 29.8824C56.8706 29.8624 59.2606 30.0324 61.3306 30.9324C61.6306 31.0224 61.6906 31.3324 61.6906 31.6124V36.9024C61.7106 37.2324 61.3406 37.3424 61.1006 37.2124H61.0606Z" fill="#31A8FF"/>
</svg>
