<svg width="64" height="77" viewBox="0 0 64 77" fill="none" xmlns="http://www.w3.org/2000/svg">
<path d="M63.189 58.0388L36.989 2.39878C36.329 0.998781 34.949 0.0887808 33.409 0.0087808C31.859 -0.0912192 30.3889 0.668781 29.5789 1.98878L1.15896 48.0188C0.278964 49.4388 0.298952 51.2388 1.20895 52.6388L15.099 74.1588C16.179 75.8188 18.219 76.5688 20.119 76.0088L60.439 64.0788C61.669 63.7188 62.679 62.8488 63.219 61.6788C63.749 60.5188 63.7389 59.1888 63.1989 58.0388H63.189ZM57.319 60.4288L23.109 70.5488C22.069 70.8588 21.059 69.9588 21.279 68.8988L33.499 10.3688C33.729 9.26878 35.239 9.09878 35.719 10.1088L58.349 58.1588C58.549 58.5888 58.549 59.0888 58.349 59.5288C58.149 59.9688 57.769 60.2888 57.309 60.4188L57.319 60.4288Z" fill="#F8FAFC"/>
</svg>
