<svg width="77" height="67" viewBox="0 0 77 67" fill="none" xmlns="http://www.w3.org/2000/svg">
<path d="M45.09 32.9593C45.09 29.3193 42.04 26.3593 38.29 26.3593C34.54 26.3593 31.49 29.3093 31.49 32.9593C31.49 36.6093 34.54 39.5593 38.29 39.5593C42.04 39.5593 45.09 36.6093 45.09 32.9593Z" fill="#53C1DE"/>
<path fill-rule="evenodd" clip-rule="evenodd" d="M60.38 20.7093C61.82 15.0493 63.62 4.54927 57.26 0.989275C50.92 -2.55073 42.68 4.23927 38.32 8.30927C33.98 4.27927 25.5 -2.49073 19.14 1.07928C12.81 4.63928 14.76 14.9593 16.23 20.6493C10.32 22.2793 0.190002 25.7793 0.190002 32.9393C0.190002 40.0993 10.31 43.8893 16.18 45.5193C14.71 51.2493 12.85 61.4193 19.19 64.9693C25.57 68.5393 34.03 61.9393 38.42 57.8193C42.8 61.9193 50.97 68.5593 57.31 65.0093C63.67 61.4393 62.01 51.0793 60.54 45.3593C66.23 43.7293 76.37 39.9993 76.37 32.9493C76.37 25.8993 66.19 22.3193 60.37 20.6993L60.38 20.7093ZM59.66 42.3293C58.7 39.3693 57.39 36.2193 55.8 32.9693C57.32 29.7993 58.57 26.6893 59.51 23.7493C63.77 24.9493 73.13 27.6893 73.13 32.9593C73.13 38.2293 64.16 41.0393 59.66 42.3293ZM55.68 62.2893C50.95 64.9393 43.93 58.5893 40.69 55.5693C42.84 53.2893 44.98 50.6493 47.08 47.7093C50.76 47.3893 54.24 46.8793 57.4 46.1693C58.43 50.2193 60.43 59.6293 55.68 62.2893ZM20.82 62.2493C16.09 59.6093 18.25 50.5293 19.34 46.3093C22.46 46.9793 25.92 47.4593 29.61 47.7493C31.72 50.6293 33.93 53.2693 36.15 55.5793C33.4 58.1593 25.58 64.8993 20.83 62.2493H20.82ZM3.44 32.9493C3.44 27.6093 12.74 24.8893 17.1 23.6993C18.05 26.7093 19.3 29.8493 20.81 33.0293C19.28 36.2593 18.01 39.4493 17.05 42.4893C12.89 41.3393 3.44 38.2893 3.44 32.9493ZM20.77 3.80927C25.52 1.13927 32.89 7.63927 36.04 10.5593C33.83 12.8593 31.64 15.4893 29.55 18.3493C25.97 18.6693 22.54 19.1893 19.38 19.8793C18.2 15.2893 16.02 6.47927 20.77 3.80927ZM49.41 21.7693C51.84 22.0693 54.17 22.4593 56.36 22.9493C55.7 24.9893 54.89 27.1193 53.92 29.3093C52.52 26.7393 51.02 24.2193 49.41 21.7693ZM38.32 12.8093C39.82 14.3893 41.32 16.1493 42.8 18.0593C39.8 17.9193 36.79 17.9193 33.79 18.0593C35.27 16.1693 36.79 14.4093 38.31 12.8093H38.32ZM22.68 29.3093C21.73 27.1293 20.92 24.9893 20.26 22.9193C22.43 22.4493 24.75 22.0593 27.17 21.7693C25.55 24.2093 24.06 26.7293 22.68 29.3093ZM27.24 44.3493C24.75 44.0793 22.39 43.7093 20.22 43.2593C20.89 41.1493 21.72 38.9593 22.69 36.7393C24.08 39.3493 25.6 41.8893 27.24 44.3593V44.3493ZM38.41 53.2993C36.87 51.6893 35.33 49.8993 33.83 47.9793C36.85 48.0893 39.87 48.0993 42.89 47.9593C41.41 49.9193 39.91 51.6993 38.42 53.2893L38.41 53.2993ZM53.94 36.6193C54.96 38.8693 55.82 41.0493 56.5 43.1193C54.29 43.6093 51.91 43.9993 49.39 44.2893C51.01 41.7893 52.54 39.2393 53.94 36.6193ZM45.26 44.6793C40.64 44.9993 36 44.9993 31.38 44.7093C28.76 40.9893 26.42 37.0893 24.41 33.0293C26.42 28.9793 28.73 25.0793 31.35 21.3693C35.97 21.0293 40.62 21.0293 45.24 21.3693C47.83 25.0793 50.14 28.9693 52.2 32.9793C50.17 37.0293 47.84 40.9293 45.27 44.6793H45.26ZM55.63 3.71927C60.38 6.37927 58.27 15.8093 57.23 19.9093C54.07 19.1993 50.64 18.6793 47.04 18.3493C44.95 15.4593 42.78 12.8293 40.6 10.5593C43.79 7.57927 50.93 1.08927 55.63 3.71927Z" fill="#53C1DE"/>
</svg>
