<svg width="77" height="77" viewBox="0 0 77 77" fill="none" xmlns="http://www.w3.org/2000/svg">
<path d="M73.3807 0.192444H4.33073C2.35908 0.192444 0.760742 1.79079 0.760742 3.76244V72.8124C0.760742 74.7841 2.35908 76.3824 4.33073 76.3824H73.3807C75.3524 76.3824 76.9507 74.7841 76.9507 72.8124V3.76244C76.9507 1.79079 75.3524 0.192444 73.3807 0.192444Z" fill="#3178C6"/>
<path fill-rule="evenodd" clip-rule="evenodd" d="M44.9707 59.4024V67.7524C46.4907 68.5024 48.1007 69.0324 49.7707 69.3124C51.7007 69.6724 53.6507 69.8424 55.6107 69.8324C57.5207 69.8324 59.4207 69.6524 61.2907 69.2624C62.9707 68.9224 64.5707 68.2824 66.0107 67.3624C67.3507 66.5024 68.4507 65.3124 69.2207 63.9224C70.6007 61.0324 70.7807 57.7124 69.7307 54.6824C69.2907 53.5524 68.6207 52.5224 67.7807 51.6424C66.8707 50.7124 65.8507 49.9124 64.7207 49.2524C63.4307 48.4924 62.0807 47.8324 60.7007 47.2524C59.6107 46.8024 58.6307 46.3624 57.7607 45.9324C56.9907 45.5624 56.2507 45.1224 55.5507 44.6324C55.0007 44.2524 54.5307 43.7724 54.1507 43.2224C53.8207 42.7224 53.6507 42.1424 53.6607 41.5424C53.6607 40.9924 53.8107 40.4524 54.1007 39.9924C54.4207 39.5024 54.8507 39.1024 55.3507 38.8024C55.9607 38.4424 56.6307 38.1824 57.3307 38.0324C58.1807 37.8424 59.0607 37.7524 59.9307 37.7624C60.6707 37.7624 61.4007 37.8224 62.1307 37.9224C62.9207 38.0324 63.6907 38.1924 64.4607 38.4024C65.2407 38.6224 66.0007 38.8924 66.7307 39.2224C67.4507 39.5424 68.1307 39.9224 68.7707 40.3724V32.5824C67.4307 32.0724 66.0407 31.7124 64.6207 31.4924C62.9107 31.2424 61.1807 31.1224 59.4507 31.1424C57.5607 31.1324 55.6707 31.3424 53.8307 31.7824C52.1707 32.1624 50.5907 32.8424 49.1607 33.7724C47.8407 34.6524 46.7407 35.8424 45.9707 37.2324C45.1507 38.7724 44.7507 40.5024 44.8007 42.2524C44.7407 44.5624 45.5007 46.8224 46.9507 48.6224C48.7207 50.6224 50.9607 52.1524 53.4707 53.0824C54.6107 53.5524 55.6807 54.0124 56.6707 54.4724C57.5607 54.8724 58.4207 55.3424 59.2307 55.8824C59.8907 56.3124 60.4607 56.8524 60.9307 57.4724C61.3407 58.0424 61.5607 58.7224 61.5607 59.4324C61.5607 59.9624 61.4307 60.4724 61.1707 60.9324C60.8807 61.4224 60.4707 61.8324 59.9907 62.1324C59.3807 62.5024 58.7107 62.7724 58.0107 62.9224C57.1007 63.1224 56.1707 63.2224 55.2407 63.2124C53.4107 63.2124 51.6007 62.8824 49.8807 62.2624C48.0907 61.6124 46.4207 60.6524 44.9707 59.4224V59.4024ZM30.9507 38.6224H41.8307V31.7424H11.4807V38.6224H22.3207V69.2424H30.9507V38.6224Z" fill="white"/>
</svg>
