<svg width="77" height="77" viewBox="0 0 77 77" fill="none" xmlns="http://www.w3.org/2000/svg">
<path d="M5.41504 38.094C5.41504 51.0296 12.9325 62.2085 23.8334 67.5059L8.24442 24.7941C6.43113 28.8584 5.41504 33.3562 5.41504 38.094Z" fill="#21759B"/>
<path d="M60.1571 36.445C60.1571 32.4061 58.7064 29.6091 57.462 27.432C55.8055 24.74 54.2527 22.4604 54.2527 19.7684C54.2527 16.7643 56.5311 13.9679 59.7405 13.9679C59.8854 13.9679 60.0228 13.9859 60.164 13.994C54.3497 8.66727 46.6034 5.41504 38.0954 5.41504C26.6784 5.41504 16.6337 11.2728 10.7903 20.1452C11.557 20.1683 12.2796 20.1844 12.8934 20.1844C16.3116 20.1844 21.6029 19.7696 21.6029 19.7696C23.3646 19.6658 23.5723 22.2533 21.8124 22.4616C21.8124 22.4616 20.0421 22.6699 18.0721 22.7731L29.9729 58.1715L37.1247 36.7223L32.033 22.7719C30.2732 22.6687 28.6061 22.4604 28.6061 22.4604C26.845 22.3571 27.0515 19.6646 28.8125 19.7684C28.8125 19.7684 34.2095 20.1832 37.4207 20.1832C40.8383 20.1832 46.1302 19.7684 46.1302 19.7684C47.8931 19.6646 48.1002 22.252 46.3398 22.4604C46.3398 22.4604 44.5657 22.6687 42.5994 22.7719L54.4094 57.9023L57.6691 47.0095C59.0819 42.4893 60.1571 39.2426 60.1571 36.445Z" fill="#21759B"/>
<path d="M38.6687 40.9528L28.8635 69.445C31.7912 70.3056 34.8873 70.7763 38.0954 70.7763C41.9011 70.7763 45.5507 70.1184 48.9478 68.9239C48.8601 68.7839 48.7805 68.6353 48.7152 68.4736L38.6687 40.9528Z" fill="#21759B"/>
<path d="M66.7709 22.4149C66.9114 23.4559 66.991 24.5733 66.991 25.7754C66.991 29.0916 66.3716 32.8196 64.5061 37.4809L54.5237 66.3425C64.2393 60.6769 70.7743 50.151 70.7743 38.0947C70.7749 32.4129 69.3235 27.07 66.7709 22.4149Z" fill="#21759B"/>
<path d="M38.0953 0C17.0901 0 0 17.0889 0 38.0941C0 59.1018 17.0901 76.19 38.0953 76.19C59.0999 76.19 76.1925 59.1018 76.1925 38.0941C76.1919 17.0889 59.0999 0 38.0953 0ZM38.0953 74.4439C18.0533 74.4439 1.74676 58.1373 1.74676 38.0941C1.74676 18.0521 18.0527 1.74676 38.0953 1.74676C58.1367 1.74676 74.442 18.0521 74.442 38.0941C74.442 58.1373 58.1367 74.4439 38.0953 74.4439Z" fill="#21759B"/>
</svg>
